<svg width="128" height="128" viewBox="0 0 128 128" fill="none" xmlns="http://www.w3.org/2000/svg">
  <circle cx="64" cy="64" r="56" fill="#202123"/>
  <path d="M112 61.3333C112.018 68.3727 110.374 75.3166 107.2 81.6C103.437 89.1295 97.6523 95.4625 90.4929 99.8895C83.3335 104.317 75.0837 106.663 66.6667 106.667C59.6273 106.669 52.6834 105.041 46.4 101.867L16 112L26.1333 81.6C22.9592 75.3166 21.3149 68.3727 21.3333 61.3333C21.3366 52.9161 23.6833 44.6656 28.1105 37.5069C32.5376 30.3482 38.8707 24.5632 46.4 20.8001C52.6834 17.6264 59.6273 15.9818 66.6667 16.0001H69.3333C80.4497 16.6134 90.9492 21.4655 98.8219 29.3787C106.695 37.292 111.547 47.8172 112 58.9334V61.3333Z" stroke="white" strokeWidth="10.6667" strokeLinecap="round" strokeLinejoin="round"/>
</svg> 