<svg width="16" height="16" viewBox="0 0 16 16" fill="none" xmlns="http://www.w3.org/2000/svg">
  <path d="M14 7.66667C14.0022 8.54661 13.7967 9.4146 13.4 10.2C12.9296 11.1412 12.2066 11.9328 11.3116 12.4862C10.4167 13.0396 9.38545 13.3329 8.33333 13.3333C7.45339 13.3356 6.58541 13.13 5.8 12.7333L2 14L3.26667 10.2C2.87 9.4146 2.66437 8.54661 2.66667 7.66667C2.66707 6.61453 2.96045 5.58321 3.51387 4.68835C4.06729 3.79348 4.85887 3.07036 5.8 2.60001C6.58541 2.20331 7.45339 1.99771 8.33333 2.00001H8.66667C10.0562 2.07668 11.3686 2.66319 12.3527 3.64726C13.3368 4.63134 13.9233 5.94382 14 7.33334V7.66667Z" stroke="#202123" strokeWidth="1.33333" strokeLinecap="round" strokeLinejoin="round"/>
</svg> 