<svg width="48" height="48" viewBox="0 0 48 48" fill="none" xmlns="http://www.w3.org/2000/svg">
  <path d="M42 23C42.0067 25.6397 41.3901 28.2437 40.2 30.6C38.7888 33.4236 36.6196 35.7984 33.9348 37.4586C31.2501 39.1188 28.1564 39.9988 25 40C22.3603 40.0071 19.7562 39.3902 17.4 38.2L6 42L9.8 30.6C8.60985 28.2437 7.99312 25.6397 8 23C8.00123 19.8435 8.88122 16.7496 10.5414 14.0651C12.2016 11.3806 14.5765 9.2112 17.4 7.80005C19.7562 6.60991 22.3603 5.99318 25 6.00005H26C30.1686 6.23003 34.1059 8.04957 37.0582 11.0178C40.0104 13.9861 41.83 17.9314 42 22V23Z" stroke="#202123" strokeWidth="4" strokeLinecap="round" strokeLinejoin="round"/>
</svg> 